<svg version="1.1" xmlns="http://www.w3.org/2000/svg" viewBox="0 0 402 402">
  <path fill="#242629" opacity="1" stroke="none" d="M390.854065,164.200043 C394.603699,183.602478 395.837585,202.633392 394.212158,222.018250 C392.167664,246.400421 385.502563,269.374054 374.792633,291.106079 C363.132355,314.766602 346.795929,334.928436 326.593811,352.041931 C303.312622,371.763733 276.913177,385.155121 247.343719,392.305634 C235.737152,395.112366 223.914444,396.356934 211.947357,397.189819 C186.847427,398.936737 162.679352,395.010498 139.074280,387.073425 C115.667625,379.203064 94.834160,366.811218 76.046219,350.684113 C54.733246,332.389618 38.450478,310.440582 26.654150,285.129944 C18.469501,267.568604 13.229571,249.080566 10.970424,229.779709 C9.870624,220.383652 8.633324,210.986435 9.044862,201.515900 C10.237715,174.065445 15.530297,147.595856 27.622969,122.650887 C36.463886,104.413673 47.415199,87.805336 61.357903,72.984161 C81.993004,51.048939 106.194695,34.761196 134.287613,24.034071 C160.496918,14.026196 187.718124,10.365398 215.489487,12.176535 C244.863785,14.092210 272.497711,22.490705 298.119385,37.386814 C314.483490,46.900681 329.406769,58.177254 342.319305,71.939003 C360.012329,90.795624 373.616364,112.308952 382.766541,136.587006 C386.113739,145.468018 388.759796,154.525543 390.854065,164.200043z"/>
  <path fill="#4ade80" opacity="1" stroke="none" d="M100.766975,48.743423 C209.811295,-21.594090 354.636627,37.408302 383.732727,163.697128 C403.044769,247.519302 360.444763,335.649292 282.903076,372.291351 C213.550751,405.063538 134.529633,394.087891 77.641479,342.838257 C41.229614,310.035400 20.151209,268.777222 16.972279,219.710556 C12.275946,147.222855 40.927570,90.365326 100.766975,48.743423z"/>
  <path fill="#242629" opacity="1" stroke="none" d="M32.711571,259.218689 C13.732294,193.930099 26.019718,135.599579 70.774147,84.909760 C99.173424,52.744133 135.582748,34.424644 177.969528,28.273666 C253.736206,17.278765 330.134796,58.592724 362.869293,128.010544 C393.843811,193.695984 382.741180,270.018188 334.346436,324.083740 C268.950867,397.142273 154.504761,402.673523 82.282455,336.303223 C59.122643,315.019989 42.521652,289.547028 32.711571,259.218689z"/>
  <path fill="#4ade80" opacity="1" stroke="none" d="M268.426453,316.372070 C264.559509,322.838623 260.334808,328.605804 255.720627,334.079895 C251.051529,339.619202 245.399597,339.926575 240.232651,334.800079 C226.988480,321.659607 213.760239,308.501099 200.702042,295.176910 C198.231995,292.656555 196.834930,292.339569 193.995636,294.787079 C179.874405,306.959808 165.530090,318.873932 151.250107,330.862183 C143.670074,337.225739 138.829407,336.523682 133.295135,328.205750 C122.541039,312.042511 115.412460,294.428619 112.925346,275.137238 C112.305412,270.328705 110.591690,268.930695 105.781502,269.172821 C94.645798,269.733398 83.471764,269.494568 72.326347,269.921356 C68.529442,270.066742 68.012749,268.705292 68.214462,265.352112 C69.790504,239.152328 77.668724,215.130814 92.893463,193.688202 C94.987610,190.738815 94.832939,189.212219 92.268448,186.738846 C82.797546,177.604446 73.675354,168.108917 64.226387,158.951050 C61.812611,156.611649 61.878185,155.293579 64.323364,153.145828 C104.777039,117.612961 150.523483,106.971581 202.069016,123.854294 C205.470139,124.968269 208.395172,124.715378 211.705399,123.904541 C263.256561,111.277100 307.731842,123.400665 344.685364,161.969711 C347.320129,164.719635 347.237274,166.003448 344.275848,168.390289 C334.944550,175.911087 325.954010,183.853241 316.692200,191.462631 C314.479218,193.280807 314.050079,194.455322 315.687653,197.097382 C326.753204,214.950638 332.862152,234.457581 334.508270,255.387985 C335.058502,262.384613 331.147736,266.874664 324.060638,266.980438 C313.069336,267.144501 302.075195,267.314514 291.084656,267.216125 C287.744781,267.186218 286.194061,267.810120 285.520721,271.552307 C282.668396,287.405243 276.950409,302.251160 268.426453,316.372070z"/>
  <path fill="#FBFEFE" opacity="1" stroke="none" d="M137.498566,179.435577 C153.807938,168.246979 173.650711,171.539917 183.876877,186.863358 C193.846848,201.802963 189.801529,221.610825 174.735901,231.621857 C160.768005,240.903442 141.802933,237.519272 131.521301,223.910538 C121.121338,210.145126 123.523178,191.476578 137.498566,179.435577z"/>
  <path fill="#FCFEFE" opacity="1" stroke="none" d="M246.134613,236.846863 C228.660049,235.053574 216.601028,223.626450 215.083481,207.839508 C213.635056,192.771286 223.160278,178.177628 237.647141,174.099289 C250.641937,170.440964 262.218018,173.431198 271.153687,183.736496 C279.903870,193.827881 281.728729,205.525314 276.250641,217.742477 C270.598877,230.347076 260.322296,236.464935 246.134613,236.846863z"/>
  <path fill="#242629" opacity="1" stroke="none" d="M179.833984,217.247147 C176.169083,225.853455 170.691284,229.568954 162.976379,229.029434 C156.529434,228.578583 150.952118,224.149414 149.054352,217.955215 C147.053589,211.424805 148.642044,205.707428 153.578629,201.195786 C158.550049,196.652267 164.536240,195.641769 170.705841,198.390121 C177.038712,201.211227 180.281784,206.348358 180.269882,213.371017 C180.267929,214.527283 180.043701,215.683197 179.833984,217.247147z"/>
  <path fill="#242629" opacity="1" stroke="none" d="M249.633606,200.225555 C256.526184,207.054413 257.881561,214.123138 253.893311,221.070068 C250.345154,227.250427 242.677063,230.547592 235.959671,228.580994 C229.502975,226.690704 225.347198,222.346848 224.212021,215.729660 C223.072906,209.089325 225.518982,203.547226 231.137848,199.797821 C237.139099,195.793213 243.311035,196.080246 249.633606,200.225555z"/>
</svg>
